<svg width="580" height="400" xmlns="http://www.w3.org/2000/svg" xmlns:xlink="http://www.w3.org/1999/xlink">
 <!-- Created with SVG Editor - http://github.com/mzalive/SVG Editor/ -->
 <g>
  <title>background</title>
  <rect fill="#fff" id="canvas_background" height="402" width="582" y="-1" x="-1"/>
  <g display="none" overflow="visible" y="0" x="0" height="100%" width="100%" id="canvasGrid">
   <rect fill="url(#gridpattern)" stroke-width="0" y="0" x="0" height="100%" width="100%"/>
  </g>
 </g>
 <g>
  <title>Layer 1</title>
  <image href="Капибара.png" id="svg_1" height="467.999988" width="582.999974" y="-20.500009"/>
  <path id="svg_3" d="m30.499994,56.999997" opacity="0.5" stroke-width="1.5" stroke="#000" fill="#fff"/>
  <path id="svg_4" d="m197.499992,245.999994c6,1 -5,-10 8,-1c13,9 12,37.999999 12,38.999999c0,1 -10,18 -11,18c-1,0 -13,6 -13.499991,5.000006c0.499992,0.999994 8.499992,6.999993 8,6c0.499992,0.999993 15.499991,0.999993 15,0c0.499991,0.999993 -6.500009,8.999993 -7,8c0.499991,0.999993 -4.500008,11.999993 0.499991,12.999993c5,1 14,16 20,16c6,0 10,0 11,-2c1,-2 7,-18 8,-18c1,0 5,-14 5,-17c0,-3 -2,-15 0,-21c2,-6 2,-14 6,-20c4,-6 3,-20 10,-22c7,-2 12,-5 11.500009,-5.999994" opacity="0.5" stroke-opacity="null" stroke-width="1.5" stroke="#000" fill="#63ff0f"/>
  <path id="svg_5" d="m394.499989,258.999994c2,0 31,18 33,21c2,3 5,19 4.500012,18.000006c0.499988,0.999994 -11.500012,14.999993 -12,14c0.499988,0.999993 -14.500011,-3.000006 -15,-4c0.499989,0.999994 -8.500011,-1.000006 -9.500011,1.999994c-1,3 -5,9 -4,10c1,1 3,9 6,9c3,0 12,0 17,0c5,0 21,-1 20.500012,-1.999993c0.499988,0.999993 3.499988,-5.000007 4.499988,-6.000007c1,-1 3,-10 2.500012,-10.999993c0.499988,0.999993 7.499988,7.999993 7,7c0.499988,0.999993 -4.500012,13.999993 -4.500012,16.999993c0,3 -8,11 -8.499988,10.000007c0.499988,0.999993 -17.500012,-3.000007 -18,-4c0.499988,0.999993 -6.500012,8.999993 -6.500012,9.999993c0,1 -6,13 0,14c6,1 13,1 21,1c8,0 16,0 20,-4c4,-4 10,-10 11,-15c1,-5 11,-21 14,-25c3,-4 12,-10 12,-13c0,-3 3,-15 3,-17c0,-2 -8,-12 -11,-16c-3,-4 -8,-14 -8.499987,-14.999994" opacity="0.5" stroke-opacity="null" stroke-width="1.5" stroke="#000" fill="#63ff0f"/>
  <path id="svg_6" d="m205.499991,113.999996c1,-1 11,-7 10.500009,-7.999996c0.499991,0.999997 11.499991,-1.000003 14.499991,-1.000003c3,0 15,8 15,9c0,1 -13,20 -13.499991,19.000004c0.499991,0.999996 -15.500009,7.999996 -16,7" opacity="0.5" stroke-opacity="null" stroke-width="1.5" stroke="#000" fill="#ff0f87"/>
  <path id="svg_7" d="m175.499992,73.999997c1,0 19,-13 20,-13c1,0 7,21 6.500008,20.000003" opacity="0.5" stroke-opacity="null" stroke-width="1.5" stroke="#000" fill="#ff0f87"/>
  <path stroke="#000" id="svg_8" d="m359.499989,93.884394c3.906455,0.971098 35.158091,161.202306 36.134704,161.202306c0.976614,0 76.175863,2.913295 75.199249,2.913295c-0.976614,0 12.695977,-20.393063 12.695977,-26.219652c0,-5.826589 1.953227,-53.410403 0.976614,-55.352599c-0.976614,-1.942196 -63.479886,-68.947974 -63.968181,-69.919069c0.488295,0.971095 -42.482704,-16.508673 -42.482704,-16.508673" opacity="0.5" stroke-opacity="null" stroke-width="1.5" fill="#ffdb0f"/>
  <path id="svg_9" d="m71.499993,96.999997c5,0 76.999999,-22 78.999999,-22c2,0 35.999999,4 36.999999,4c1,0 12,16 12,19c0,3 5,21 5,23c0,2 10,18 10,20c0,2 -6,45.999999 -6,47.999999c0,2 -39.999999,28 -40.499991,27.000005c0.499992,0.999995 -55.500007,-43.000004 -59.500007,-44.000004c-4,-1 -25,-5 -26,-6c-1,-1 -18,-16 -18.499993,-16.999996c0.499994,0.999996 -10.500006,-20.000004 -11,-21" opacity="0.5" stroke-opacity="null" stroke-width="1.5" stroke="#000" fill="#59991a"/>
  <text stroke="#000" transform="matrix(1.8638777728811817,0,0,1.8638777728811817,-212.28656626902105,-6.600822969267786) " xml:space="preserve" text-anchor="start" font-family="Helvetica, Arial, sans-serif" font-size="24" id="svg_11" y="28.999998" x="227.258451" fill-opacity="null" stroke-opacity="null" stroke-width="0" fill="#000000">Капибара</text>
 </g>
</svg>